<svg xmlns="http://www.w3.org/2000/svg" width="1275.59" height="212.598" viewBox="0 0 1275.59 212.598"><g fill="#FFF"><path d="M198.005 66.047c-10.455-10.266-22.828-10.614-33.094-10.614h-34.104l.968 98.134h26.447c13.92 0 29.315-1.74 41.131-15.312 7.712-8.874 12.23-22.272 11.355-38.977-.812-15.484-5.92-26.619-12.703-33.231zM397.176 55.259c-4.16 10.266-6.836 15.66-10.418 23.664-6.705 14.789-4.196 9.569-10.601 23.489h40.194c-4-9.918-7.012-17.573-9.41-23.489-1.601-4.002-3.595-8.874-9.765-23.664zM680.531 55.259c-4.16 10.266-6.834 15.66-10.418 23.664-6.705 14.789-4.195 9.569-10.6 23.489h40.193c-4-9.918-7.012-17.573-9.409-23.489-1.601-4.002-3.596-8.874-9.766-23.664z"/><path d="M0 0v212.598h1275.59V0H0zm55.182 63.825c-5.637 0-10.205-4.568-10.205-10.205s4.568-10.204 10.205-10.204c5.634 0 10.205 4.567 10.205 10.204s-4.57 10.205-10.205 10.205zm17.057 101.574c.26-14.964.346-29.928.066-51.851-.549-40.367-1.369-59.333-1.926-69.947h17.748c-.389 19.142-.09 31.494.717 73.427.435 18.27.441 28.361 1.316 48.371H72.239zm138.953-17.052c-15.361 15.659-36.168 17.052-53.395 17.052h-42.455c.498-17.052.613-34.799.506-53.417-.178-20.01-.455-48.545-1.67-68.381h53.765c12.354 0 28.957 1.393 42.134 13.746 3.469 3.133 15.793 15.834 17.143 41.586.956 18.268-4.139 37.234-16.028 49.414zm113.713 17.052h-78.819c.609-21.575.678-40.192.436-61.42-.56-40.541-.612-48.197-1.772-60.377v-.001.001h78.992l-.213 12.528c-8.389-.696-12.912-.696-20.916-.696h-40.715l.642 42.107h43.5c4.349 0 10.42-.349 12.159-.349l-.202 12.701c-6.814-.521-10.47-.521-12.209-.521H262.29l.75 44.194h26.795c13.224 0 22.785-.174 35.276-.868l-.206 12.701zm115.626 0c-2.691-8.178-4.273-11.832-7.477-19.836-4.412-11.134-6.865-18.095-12.777-31.317h-48.719c-6.076 13.57-8.384 19.312-13.652 31.666-3.418 7.83-4.966 11.483-8.026 19.487h-18.617c4.26-8.351 7.385-15.137 12.707-26.446 9.226-19.836 14.193-31.32 25.15-54.636C378.667 63.96 381.956 57 387.345 43.601h20.878c4.237 11.136 9.053 23.316 17.006 42.281 27.057 64.728 24.713 59.854 33.225 79.517h-17.923zm148.174-.002c.198-16.181-.194-23.664-1.776-73.773-.408-14.442-.828-22.446-1.732-33.06-4.104 11.31-9.603 25.926-14.615 39.846-19.299 53.416-20.077 55.155-24.153 66.987H529.9c-15.121-39.497-13.802-37.583-25.654-67.857-8.631-21.924-9.811-24.533-14.891-38.453-.91 12.526-.701 19.836-.832 30.623-.158 16.878-1.08 39.149-.881 52.896l.324 22.793h-15.312c1.486-18.096 1.646-28.36 2.088-46.457.527-16.528.939-25.229 1.275-52.023.252-15.137.27-14.79.344-23.316v-.002h23.143c4.209 13.92 7 20.706 15.411 41.76 4.604 11.485 16.033 40.367 23.41 61.596 16.375-42.803 10.741-30.797 22.726-61.073 8.596-21.923 11.079-27.665 15.184-42.281h23.49c.563 17.4.707 30.102 1.162 42.107.698 23.314 2.002 54.809 3.828 79.689h-16.01zm135.181.002c-2.69-8.178-4.274-11.832-7.478-19.836-4.412-11.134-6.865-18.095-12.776-31.317h-48.72c-6.073 13.57-8.384 19.312-13.651 31.666-3.416 7.83-4.964 11.483-8.023 19.487H614.62c4.261-8.351 7.384-15.137 12.707-26.446 9.225-19.836 14.189-31.32 25.148-54.636C662.02 63.96 665.311 57 670.698 43.601h20.878c4.238 11.136 9.054 23.316 17.006 42.281 27.056 64.728 24.713 59.854 33.226 79.517h-17.922zm84.14-5.396c-9.048 6.613-22.062 7.309-28.151 7.309-11.482 0-20.13-2.262-31.07-5.221l-1.984-14.615c13.918 6.612 23.91 8.004 31.043 8.004 1.914 0 11.649-.174 17.851-4.696 3.188-2.262 6.448-6.438 6.084-13.398-.312-5.916-2.938-9.569-6.802-13.571-2.39-2.437-6.052-5.916-17.487-14.964-6.363-5.22-12.342-9.743-17.652-14.79-6.043-5.741-11.994-13.049-12.549-23.663-.347-6.611 1.641-15.138 10.516-21.749 8.547-6.264 17.558-6.96 26.433-6.96 9.047 0 13.955.696 25.018 2.61l1.954 14.093c-8.866-3.133-16.612-4.873-25.137-4.873-4.871 0-10.752.696-15.945 4.524-5.183 4.002-6.484 9.048-6.275 13.05.365 6.959 5.52 12.353 9.73 16.355 4.946 4.697 11.473 9.744 18.551 15.312 9.808 7.83 14.906 12.18 18.797 16.703 4.65 5.742 7.021 11.137 7.367 17.748.663 12.7-6.106 19.661-10.292 22.792zM917.388 56.128c-9.075-.522-14.129-.696-18.479-.696h-19.487c-.171 20.01.021 26.97.372 53.591.261 21.576.25 34.625 1.563 56.375h-17.574c.287-17.748.373-32.71.15-56.896-.279-21.923-.359-36.714-.867-53.069h-17.748c-5.394 0-10.596.348-20.494.696l-.135-12.528V43.6h92.74l-.041 12.528zm98.406 109.271h-78.82c.61-21.575.678-40.192.436-61.42-.56-40.541-.612-48.197-1.772-60.377v-.001.001h78.993l-.213 12.528c-8.39-.696-12.912-.696-20.916-.696h-40.716l.642 42.107h43.498c4.349 0 10.422-.349 12.162-.349l-.205 12.701c-6.813-.521-10.468-.521-12.207-.521h-43.498l.75 44.194h26.795c13.224 0 22.785-.174 35.274-.868l-.203 12.701zm88.816-.001c-7.854-13.746-13.585-23.488-23.022-37.583-12.451-18.444-12.05-17.399-19.263-28.883 3.689.696 8.066 1.218 12.244 1.218 10.614 0 18.801-3.132 23.767-8.005 4.294-4.349 6.761-10.438 6.396-17.397-.32-6.09-2.811-10.441-5.383-13.052-5.879-5.916-14.943-6.264-22.242-6.09-14.086.174-14.598.35-22.793 0-.168 10.093-.105 17.922.32 36.019.488 25.924.897 40.367 1.953 73.773h-17.4c.46-11.135 1.107-32.015.119-77.429-.437-21.575-1.164-35.494-1.629-44.369h7.307c10.265 0 10.459.35 20.193.175 6.951-.175 10.071-.349 15.467-.349 9.046 0 20.193.173 29.275 7.482 6.537 5.22 9.868 12.354 10.325 21.053.548 10.44-3.338 19.314-8.778 25.057-7.594 7.829-17.604 9.396-28.152 10.613 15.689 23.837 22.189 31.667 39.914 57.767h-18.618zm97.526-5.395c-9.05 6.613-22.064 7.309-28.154 7.309-11.481 0-20.127-2.262-31.069-5.221l-1.984-14.615c13.918 6.612 23.91 8.004 31.043 8.004 1.914 0 11.648-.174 17.85-4.696 3.188-2.262 6.449-6.438 6.084-13.398-.311-5.916-2.938-9.569-6.801-13.571-2.39-2.437-6.052-5.916-17.488-14.964-6.362-5.22-12.343-9.743-17.651-14.79-6.043-5.741-11.994-13.049-12.552-23.663-.345-6.611 1.644-15.138 10.519-21.749 8.547-6.264 17.559-6.96 26.432-6.96 9.047 0 13.955.696 25.019 2.61l1.954 14.093c-8.866-3.133-16.612-4.873-25.138-4.873-4.87 0-10.752.696-15.942 4.524-5.185 4.002-6.486 9.048-6.277 13.05.365 6.959 5.52 12.353 9.73 16.355 4.946 4.697 11.473 9.744 18.551 15.312 9.807 7.83 14.906 12.18 18.797 16.703 4.65 5.742 7.021 11.137 7.367 17.748.663 12.7-6.103 19.661-10.29 22.792z"/></g></svg>