<svg xmlns="http://www.w3.org/2000/svg" width="1275.59" height="212.598" viewBox="0 0 1275.59 212.598"><g fill="#FFF"><path d="M1016.215 74.79c-8.053-7.906-17.58-8.174-25.486-8.174h-26.266l.746 75.577h20.366c10.722 0 22.576-1.34 31.677-11.792 5.94-6.834 9.42-17.152 8.746-30.017-.625-11.926-4.558-20.502-9.783-25.594zM223.548 66.481c-3.205 7.907-5.263 12.062-8.023 18.226-5.166 11.391-3.231 7.371-8.164 18.091h30.954c-3.082-7.638-5.399-13.534-7.246-18.091-1.234-3.083-2.771-6.835-7.521-18.226z"/><path d="M0 0v212.598h1275.59V0H0zm1176.986 56.024a6.802 6.802 0 0 1 6.803 6.804 6.803 6.803 0 1 1-6.803-6.804zm-849.639 0a6.802 6.802 0 0 1 6.803 6.804 6.803 6.803 0 1 1-6.803-6.804zm-174.144 95.28c.15-12.462-.152-18.224-1.369-56.816-.316-11.122-.64-17.286-1.336-25.461-3.16 8.71-7.396 19.968-11.256 30.688-14.862 41.139-15.462 42.479-18.603 51.591H107.91c-11.646-30.418-10.63-28.946-19.759-52.262-6.646-16.885-7.556-18.894-11.468-29.614-.7 9.647-.539 15.275-.639 23.584-.123 12.998-.832 30.15-.681 40.736l.25 17.555H63.821c1.146-13.935 1.268-21.841 1.609-35.779.404-12.729.724-19.429.982-40.065.193-11.658.207-11.392.266-17.956H84.5c3.242 10.72 5.391 15.946 11.871 32.159 3.545 8.844 12.349 31.088 18.03 47.437 12.609-32.965 8.271-23.719 17.5-47.035 6.619-16.884 8.531-21.306 11.695-32.563h18.09c.435 13.399.545 23.183.896 32.429.539 17.956 1.543 42.211 2.948 61.373h-12.327zm103.736 0c-2.069-6.298-3.291-9.112-5.758-15.276-3.399-8.575-5.287-13.936-9.84-24.119H203.82c-4.678 10.45-6.457 14.874-10.514 24.389-2.633 6.029-3.825 8.844-6.182 15.008h-14.34c3.28-6.431 5.687-11.658 9.786-20.369 7.107-15.274 10.932-24.119 19.369-42.076 7.354-15.677 9.888-21.039 14.037-31.355v-.002h16.081c3.262 8.577 6.971 17.957 13.096 32.563 20.839 49.849 19.033 46.097 25.589 61.239h-13.803zm90.966.001c.128-7.771.285-17.555.146-30.418-.18-16.215-.446-23.853-.187-47.035-12.77 17.153-16.996 23.45-26.352 36.717-8.726 12.463-15.238 21.173-28.148 40.736h-13.399c.185-11.793.222-21.306.07-36.984-.136-20.503-.345-34.706-1.502-56.816v-.001h13.398c-.326 14.204-.139 20.368.113 32.831.203 11.523.248 30.284.201 44.756 14.563-18.76 17.871-24.657 27.219-38.057 11.216-16.08 14.397-19.297 27.274-39.53h13.534c-.002 12.729.069 39.665.265 53.601.133 5.092.355 17.019 1.303 40.201h-13.935zm102.126-1.206c-10.22 1.876-17.414 2.682-23.979 2.682-18.763 0-30.637-6.701-37.393-12.865-7.319-6.7-13.771-17.287-14.634-33.769-.793-15.142 3.914-27.604 11.525-35.778 7.103-7.64 19.349-14.338 39.313-14.338 5.228 0 13.422.4 22.642 2.411l1.225 10.585c-5.453-1.741-14.14-3.887-22.984-3.887-15.277 0-25.266 6.299-30.563 12.597-5.418 6.566-9.046 16.617-8.44 28.142.609 11.658 4.854 21.038 10.932 27.068 3.674 3.617 12.623 10.72 28.301 10.72 10.853 0 22.203-3.35 25.236-4.287l-1.181 10.719zm76.836-82.948c-6.987-.4-10.882-.534-14.231-.534h-15.008c-.13 15.409.016 20.769.286 41.271.201 16.616.191 26.667 1.203 43.417h-13.532c.22-13.668.286-25.192.114-43.818-.215-16.885-.274-28.274-.668-40.87h-13.668c-4.153 0-8.16.267-15.785.534l-.104-9.646h71.424l-.031 9.646zm71.178 84.155h-60.703c.469-16.616.521-30.955.336-47.303-.432-31.222-.471-37.119-1.365-46.498v-.001.001h60.836l-.166 9.646c-6.459-.534-9.943-.534-16.106-.534H549.52l.494 32.428h33.5c3.349 0 8.026-.269 9.367-.269l-.158 9.782c-5.246-.4-8.061-.4-9.4-.4H549.82l.578 34.035h20.637c10.187 0 17.548-.134 27.168-.67l-.158 9.783zm71.799-49.716c-6.019 5.36-14.743 7.639-22.517 7.639-1.069 0-4.689 0-11.713-1.071l-2.727-8.576c2.699.4 7.022 1.071 10.908 1.071 7.104 0 13.168-1.877 17.006-5.36 3.457-3.082 5.862-8.309 5.547-14.338-.273-5.227-2.623-9.111-5.273-11.122-4.188-3.216-10.345-3.082-13.694-3.082-4.824 0-9.104.134-18.752.134-.173 6.969-.039 12.061.205 24.389.655 27.873.366 35.109.786 43.148l.752 16.885h-13c.61-11.391.464-16.75.257-33.5-.3-21.039-.05-36.717-1.42-60.302v-.001h5.495c4.424 0 8.592.269 16.357.134 3.609-.134 8.425-.268 12.445-.268 5.628 0 12.597 0 18.731 4.556 3.068 2.278 8.58 7.773 9.121 18.091.543 10.317-3.91 17.419-8.514 21.573zm92.279 49.717c.141-4.958.285-12.463.307-19.698.043-6.835-.229-17.152-.445-23.853H706.24c.02 5.494.086 17.017.289 23.45.084 4.153.295 8.175.515 12.329.132 2.544.138 5.225.271 7.771h-13.668c.107-8.174.246-28.543.166-42.881-.137-17.957-.578-34.037-1.463-50.92v-.001.001h13.534c-.029 9.647.067 14.071.08 21.976.11 7.236.047 11.123.2 19.163h55.744c.107-8.175.053-11.792-.102-19.833-.062-8.844-.159-13.266-.848-21.306h13.668c-.289 25.192-.381 28.542.016 51.457.357 17.019.785 30.284 1.148 42.345h-13.667zm79.783.001c.222-16.215.24-36.314.031-50.52-.104-7.103-.391-15.143-.853-34.17-6.355-1.073-12.941-1.476-16.561-1.476-5.225 0-12.568.536-17.709 4.69-3.726 3.082-6.011 8.04-5.695 14.069.428 8.176 5.328 12.195 8.234 13.938 5.401 3.349 12.383 3.617 17.477 3.617 3.216 0 5.763 0 9.474-.804-8.904 11.658-12.869 17.822-20.08 28.542-4.846 7.235-7.959 11.793-14.521 22.11h-16.614c8.979-10.183 12.592-15.41 17.975-22.646 5.136-6.834 6.652-8.577 15.027-20.102-5.234-.133-15.207-1.206-22.088-7.234-4.359-3.888-7.191-9.382-7.587-16.886-.639-12.193 5.775-20.233 13.611-24.121 2.482-1.205 9.691-4.286 25.234-4.286 8.173 0 19.875.803 27.152 1.606-.058 9.112.02 13.133.143 38.461.24 30.15.765 45.293 1.285 55.209h-13.935zm61.717-81.678a6.803 6.803 0 1 1-.001-13.607 6.803 6.803 0 0 1 .001 13.607zm13.293 81.676c.199-11.524.267-23.049.052-39.933-.423-31.089-1.054-45.695-1.482-53.869h13.667c-.299 14.74-.068 24.255.551 56.549.336 14.07.343 21.843 1.015 37.253h-13.803zm109.453-13.133c-11.832 12.061-27.854 13.133-41.121 13.133h-32.696c.385-13.133.473-26.801.391-41.139-.137-15.41-.351-37.387-1.287-52.663h41.408c9.513 0 22.301 1.071 32.447 10.586 2.672 2.412 12.162 12.194 13.203 32.026.735 14.071-3.188 28.678-12.345 38.057zm89.758 13.133h-60.703c.469-16.616.521-30.955.334-47.303-.43-31.222-.471-37.119-1.363-46.498v-.001.001h60.834l-.164 9.646c-6.461-.534-9.943-.534-16.106-.534h-31.357l.494 32.428h33.5c3.349 0 8.024-.269 9.367-.269l-.158 9.782c-5.248-.4-8.063-.4-9.402-.4h-33.5l.578 34.035h20.637c10.185 0 17.548-.134 27.168-.67l-.159 9.783zm80.613-.001c.129-7.771.285-17.555.146-30.418-.18-16.215-.446-23.853-.187-47.035-12.77 17.153-16.997 23.45-26.352 36.717-8.726 12.463-15.238 21.173-28.148 40.736H1128.8c.185-11.793.222-21.306.069-36.984-.135-20.503-.344-34.706-1.502-56.816v-.001h13.402c-.328 14.204-.139 20.368.111 32.831.201 11.523.248 30.284.203 44.756 14.561-18.76 17.868-24.657 27.217-38.057 11.216-16.08 14.397-19.297 27.274-39.53h13.533c-.002 12.729.071 39.665.265 53.601.133 5.092.355 17.019 1.303 40.201h-13.935z"/></g></svg>