<svg xmlns="http://www.w3.org/2000/svg" width="1275.59" height="212.598" viewBox="0 0 1275.59 212.598"><path fill="#FFF" d="M66.678 57.503c-.059 6.564-.072 6.299-.266 17.957-.259 20.637-.578 27.336-.982 40.064-.342 13.939-.463 21.846-1.609 35.779h11.793l-.25-17.555c-.151-10.586.558-27.738.681-40.736.1-8.309-.062-13.936.639-23.584 3.912 10.721 4.822 12.73 11.469 29.613 9.129 23.316 8.113 21.844 19.759 52.262h12.729c3.141-9.111 3.74-10.451 18.603-51.59 3.86-10.721 8.096-21.979 11.256-30.688.696 8.174 1.02 14.338 1.336 25.461 1.217 38.592 1.52 44.354 1.369 56.816h12.327c-1.405-19.162-2.409-43.418-2.948-61.373-.351-9.246-.461-19.029-.896-32.43h-18.09c-3.164 11.258-5.076 15.68-11.695 32.563-9.229 23.316-4.891 14.07-17.5 47.035-5.682-16.348-14.485-38.592-18.03-47.436-6.48-16.213-8.629-21.439-11.871-32.16H66.678zm149.299 0c-4.149 10.316-6.684 15.68-14.037 31.355-8.438 17.957-12.262 26.803-19.369 42.076-4.1 8.711-6.506 13.939-9.786 20.369h14.34c2.356-6.164 3.549-8.979 6.182-15.008 4.057-9.514 5.836-13.938 10.514-24.389h37.521c4.553 10.184 6.44 15.545 9.84 24.119 2.467 6.164 3.688 8.979 5.758 15.277h13.804c-6.556-15.143-4.75-11.391-25.589-61.24-6.125-14.605-9.834-23.984-13.096-32.563h-16.081v.004zm-8.617 45.293c4.933-10.719 2.998-6.699 8.164-18.09 2.761-6.164 4.818-10.318 8.023-18.227 4.75 11.393 6.287 15.145 7.521 18.227 1.847 4.557 4.164 10.453 7.246 18.09H207.36zm71.173-45.293c1.157 22.111 1.366 36.314 1.502 56.816.151 15.68.114 25.191-.07 36.984h13.399c12.91-19.563 19.423-28.273 28.148-40.736 9.355-13.266 13.582-19.563 26.352-36.717-.26 23.184.007 30.82.187 47.035.139 12.863-.019 22.646-.146 30.418h13.937c-.947-23.182-1.17-35.109-1.303-40.201-.195-13.936-.267-40.871-.265-53.6H346.74c-12.877 20.232-16.059 23.449-27.274 39.529-9.348 13.4-12.656 19.297-27.219 38.057.047-14.471.002-33.232-.201-44.756-.252-12.463-.439-18.627-.113-32.83h-13.4v.001zm168.973.937c-9.22-2.01-17.414-2.41-22.642-2.41-19.965 0-32.211 6.697-39.313 14.338-7.611 8.174-12.318 20.637-11.525 35.777.863 16.482 7.314 27.068 14.634 33.77 6.756 6.164 18.63 12.865 37.393 12.865 6.565 0 13.76-.807 23.979-2.682l1.181-10.721c-3.033.938-14.384 4.287-25.236 4.287-15.678 0-24.627-7.102-28.301-10.719-6.078-6.031-10.322-15.41-10.932-27.068-.605-11.525 3.022-21.576 8.44-28.143 5.297-6.297 15.285-12.596 30.563-12.596 8.845 0 17.531 2.145 22.984 3.887l-1.225-10.585zm7.969-.937l.104 9.646c7.625-.268 11.632-.533 15.785-.533h13.668c.394 12.596.453 23.984.668 40.869.172 18.627.105 30.15-.114 43.818h13.532c-1.012-16.75-1.002-26.801-1.203-43.416-.271-20.504-.416-25.863-.286-41.271h15.008c3.35 0 7.244.133 14.231.533l.031-9.646h-71.424zm80.838 0c.895 9.381.934 15.277 1.365 46.5.186 16.348.133 30.686-.336 47.303h60.703l.157-9.783c-9.62.537-16.981.67-27.168.67h-20.637l-.578-34.035h33.502c1.34 0 4.154 0 9.4.4l.158-9.781c-1.341 0-6.019.268-9.367.268h-33.5l-.494-32.428h31.357c6.163 0 9.647 0 16.106.535l.166-9.646h-60.836v-.003zm79.896 0c1.37 23.586 1.12 39.264 1.42 60.303.207 16.75.354 22.109-.257 33.5h13l-.752-16.885c-.42-8.039-.131-15.275-.786-43.148-.244-12.328-.378-17.42-.205-24.389 9.647 0 13.928-.135 18.752-.135 3.35 0 9.506-.133 13.694 3.082 2.65 2.012 5 5.896 5.273 11.123.315 6.029-2.09 11.256-5.547 14.338-3.838 3.482-9.902 5.359-17.006 5.359-3.886 0-8.209-.67-10.908-1.07l2.727 8.576c7.023 1.07 10.644 1.07 11.713 1.07 7.773 0 16.498-2.277 22.517-7.639 4.604-4.154 9.057-11.256 8.516-21.574-.541-10.316-6.053-15.813-9.121-18.09-6.135-4.557-13.104-4.557-18.731-4.557-4.021 0-8.836.135-12.445.268-7.766.135-11.934-.133-16.357-.133h-5.497v.001zm76.141 0c.885 16.885 1.326 32.965 1.463 50.922.08 14.338-.059 34.707-.166 42.881h13.668c-.133-2.547-.139-5.227-.271-7.771-.22-4.154-.431-8.176-.515-12.328-.203-6.434-.27-17.957-.289-23.451h55.744c.217 6.701.488 17.018.445 23.854a825.812 825.812 0 0 1-.307 19.697h13.668c-.363-12.061-.791-25.326-1.148-42.344-.396-22.916-.305-26.266-.016-51.457h-13.668c.688 8.039.786 12.461.848 21.305.154 8.041.209 11.658.102 19.834h-55.744c-.153-8.041-.09-11.928-.2-19.164-.013-7.904-.109-12.328-.08-21.975H692.35v-.003zm162.064.135c-7.277-.805-18.979-1.607-27.152-1.607-15.543 0-22.752 3.082-25.234 4.287-7.836 3.887-14.25 11.928-13.611 24.121.396 7.504 3.228 12.998 7.587 16.885 6.881 6.029 16.854 7.102 22.088 7.234-8.375 11.525-9.892 13.268-15.027 20.102-5.383 7.236-8.996 12.463-17.975 22.646h16.614c6.562-10.318 9.675-14.875 14.521-22.111 7.211-10.719 11.176-16.883 20.08-28.541-3.711.803-6.258.803-9.474.803-5.094 0-12.075-.268-17.477-3.617-2.906-1.742-7.807-5.762-8.234-13.938-.315-6.029 1.97-10.986 5.695-14.068 5.141-4.154 12.484-4.691 17.709-4.691 3.619 0 10.205.402 16.561 1.477.462 19.027.748 27.066.853 34.17.209 14.205.19 34.305-.031 50.52h13.937c-.521-9.916-1.045-25.059-1.285-55.209-.125-25.33-.203-29.352-.145-38.463zm97.241-.135c.937 15.277 1.15 37.254 1.287 52.664.082 14.338-.006 28.006-.391 41.139h32.696c13.267 0 29.289-1.072 41.121-13.133 9.156-9.379 13.08-23.986 12.345-38.057-1.041-19.832-10.531-29.615-13.203-32.027-10.146-9.514-22.935-10.586-32.447-10.586h-41.408zm12.808 9.113h26.266c7.906 0 17.434.268 25.486 8.174 5.225 5.092 9.158 13.668 9.783 25.594.674 12.865-2.806 23.184-8.746 30.018-9.101 10.451-20.955 11.791-31.677 11.791h-20.366l-.746-75.577zm89.932-9.113c.893 9.381.934 15.277 1.363 46.5.188 16.348.135 30.686-.334 47.303h60.703l.157-9.783c-9.62.537-16.983.67-27.168.67h-20.637l-.578-34.035h33.5c1.34 0 4.154 0 9.402.4l.158-9.781c-1.343 0-6.019.268-9.367.268h-33.5l-.494-32.428h31.357c6.163 0 9.646 0 16.106.535l.164-9.646h-60.834v-.003zm-720.246 5.324a6.803 6.803 0 0 1-13.606 0 6.804 6.804 0 1 1 13.606 0zm581.336-5.324c.429 8.174 1.06 22.781 1.482 53.869.215 16.885.147 28.408-.052 39.934h13.802c-.672-15.41-.679-23.184-1.015-37.254-.619-32.293-.85-41.809-.551-56.549h-13.666zm-5.059 5.324a6.803 6.803 0 1 1-13.607 0 6.804 6.804 0 1 1 13.607 0zm216.942-5.324c1.158 22.111 1.367 36.314 1.502 56.816.152 15.68.115 25.191-.069 36.984h13.399c12.91-19.563 19.423-28.273 28.148-40.736 9.354-13.266 13.582-19.563 26.352-36.717-.26 23.184.007 30.82.187 47.035.139 12.863-.018 22.646-.146 30.418h13.937c-.947-23.182-1.17-35.109-1.303-40.201-.193-13.936-.267-40.871-.265-53.6h-13.533c-12.877 20.232-16.059 23.449-27.274 39.529-9.349 13.4-12.656 19.297-27.217 38.057.045-14.471-.002-33.232-.203-44.756-.25-12.463-.439-18.627-.111-32.83h-13.404v.001zm56.42 5.324a6.803 6.803 0 0 1-13.606 0 6.804 6.804 0 1 1 13.606 0z"/></svg>